<mxfile host="app.diagrams.net" agent="Mozilla/5.0 (Windows NT 10.0; Win64; x64) AppleWebKit/537.36 (KHTML, like Gecko) Chrome/139.0.0.0 Safari/537.36" version="28.1.0">
  <diagram name="Halaman-1" id="24RyD05JRm9tAe9QrwIe">
    <mxGraphModel dx="786" dy="498" grid="1" gridSize="10" guides="1" tooltips="1" connect="1" arrows="1" fold="1" page="1" pageScale="1" pageWidth="827" pageHeight="1169" math="0" shadow="0">
      <root>
        <mxCell id="0" />
        <mxCell id="1" parent="0" />
        <mxCell id="B8Fi9vvX8Ktx67Z9AlMx-1" value="SISWA" style="swimlane;whiteSpace=wrap;html=1;" vertex="1" parent="1">
          <mxGeometry x="100" width="200" height="380" as="geometry" />
        </mxCell>
        <mxCell id="B8Fi9vvX8Ktx67Z9AlMx-4" value="" style="rounded=1;whiteSpace=wrap;html=1;" vertex="1" parent="B8Fi9vvX8Ktx67Z9AlMx-1">
          <mxGeometry x="40" y="85" width="120" height="60" as="geometry" />
        </mxCell>
        <mxCell id="B8Fi9vvX8Ktx67Z9AlMx-5" value="Entri data&lt;span style=&quot;white-space: pre;&quot;&gt;&#x9;&lt;/span&gt;" style="text;html=1;align=center;verticalAlign=middle;whiteSpace=wrap;rounded=0;" vertex="1" parent="B8Fi9vvX8Ktx67Z9AlMx-1">
          <mxGeometry x="70" y="100" width="60" height="30" as="geometry" />
        </mxCell>
        <mxCell id="B8Fi9vvX8Ktx67Z9AlMx-7" value="" style="edgeStyle=orthogonalEdgeStyle;rounded=0;orthogonalLoop=1;jettySize=auto;html=1;" edge="1" parent="B8Fi9vvX8Ktx67Z9AlMx-1" source="B8Fi9vvX8Ktx67Z9AlMx-6" target="B8Fi9vvX8Ktx67Z9AlMx-5">
          <mxGeometry relative="1" as="geometry" />
        </mxCell>
        <mxCell id="B8Fi9vvX8Ktx67Z9AlMx-6" value="" style="shape=waypoint;sketch=0;fillStyle=solid;size=6;pointerEvents=1;points=[];fillColor=none;resizable=0;rotatable=0;perimeter=centerPerimeter;snapToPoint=1;fontSize=50;" vertex="1" parent="B8Fi9vvX8Ktx67Z9AlMx-1">
          <mxGeometry x="90" y="40" width="20" height="20" as="geometry" />
        </mxCell>
        <mxCell id="B8Fi9vvX8Ktx67Z9AlMx-24" value="" style="edgeStyle=orthogonalEdgeStyle;rounded=0;orthogonalLoop=1;jettySize=auto;html=1;" edge="1" parent="B8Fi9vvX8Ktx67Z9AlMx-1" source="B8Fi9vvX8Ktx67Z9AlMx-19" target="B8Fi9vvX8Ktx67Z9AlMx-23">
          <mxGeometry relative="1" as="geometry" />
        </mxCell>
        <mxCell id="B8Fi9vvX8Ktx67Z9AlMx-19" value="" style="rounded=1;whiteSpace=wrap;html=1;" vertex="1" parent="B8Fi9vvX8Ktx67Z9AlMx-1">
          <mxGeometry x="40" y="200" width="120" height="60" as="geometry" />
        </mxCell>
        <mxCell id="B8Fi9vvX8Ktx67Z9AlMx-20" value="Menerima id card siswa" style="text;html=1;align=center;verticalAlign=middle;whiteSpace=wrap;rounded=0;" vertex="1" parent="B8Fi9vvX8Ktx67Z9AlMx-1">
          <mxGeometry x="70" y="215" width="60" height="30" as="geometry" />
        </mxCell>
        <mxCell id="B8Fi9vvX8Ktx67Z9AlMx-22" value="" style="rounded=1;whiteSpace=wrap;html=1;" vertex="1" parent="B8Fi9vvX8Ktx67Z9AlMx-1">
          <mxGeometry x="40" y="300" width="120" height="60" as="geometry" />
        </mxCell>
        <mxCell id="B8Fi9vvX8Ktx67Z9AlMx-23" value="Absensi siswa" style="text;html=1;align=center;verticalAlign=middle;whiteSpace=wrap;rounded=0;" vertex="1" parent="B8Fi9vvX8Ktx67Z9AlMx-1">
          <mxGeometry x="70" y="315" width="60" height="30" as="geometry" />
        </mxCell>
        <mxCell id="B8Fi9vvX8Ktx67Z9AlMx-2" value="SISTEM" style="swimlane;whiteSpace=wrap;html=1;" vertex="1" parent="1">
          <mxGeometry x="300" width="200" height="380" as="geometry" />
        </mxCell>
        <mxCell id="B8Fi9vvX8Ktx67Z9AlMx-8" value="" style="rounded=1;whiteSpace=wrap;html=1;" vertex="1" parent="B8Fi9vvX8Ktx67Z9AlMx-2">
          <mxGeometry x="40" y="85" width="120" height="60" as="geometry" />
        </mxCell>
        <mxCell id="B8Fi9vvX8Ktx67Z9AlMx-10" value="Menerima data siswa" style="text;html=1;align=center;verticalAlign=middle;whiteSpace=wrap;rounded=0;" vertex="1" parent="B8Fi9vvX8Ktx67Z9AlMx-2">
          <mxGeometry x="70" y="100" width="60" height="30" as="geometry" />
        </mxCell>
        <mxCell id="B8Fi9vvX8Ktx67Z9AlMx-14" value="" style="rounded=1;whiteSpace=wrap;html=1;" vertex="1" parent="B8Fi9vvX8Ktx67Z9AlMx-2">
          <mxGeometry x="40" y="200" width="120" height="60" as="geometry" />
        </mxCell>
        <mxCell id="B8Fi9vvX8Ktx67Z9AlMx-15" value="Mencetak id card siswa" style="text;html=1;align=center;verticalAlign=middle;whiteSpace=wrap;rounded=0;" vertex="1" parent="B8Fi9vvX8Ktx67Z9AlMx-2">
          <mxGeometry x="60" y="215" width="80" height="30" as="geometry" />
        </mxCell>
        <mxCell id="B8Fi9vvX8Ktx67Z9AlMx-25" value="" style="rounded=1;whiteSpace=wrap;html=1;" vertex="1" parent="B8Fi9vvX8Ktx67Z9AlMx-2">
          <mxGeometry x="40" y="300" width="120" height="60" as="geometry" />
        </mxCell>
        <mxCell id="B8Fi9vvX8Ktx67Z9AlMx-26" value="Absen" style="text;html=1;align=center;verticalAlign=middle;whiteSpace=wrap;rounded=0;" vertex="1" parent="B8Fi9vvX8Ktx67Z9AlMx-2">
          <mxGeometry x="70" y="315" width="60" height="30" as="geometry" />
        </mxCell>
        <mxCell id="B8Fi9vvX8Ktx67Z9AlMx-3" value="DATABASE" style="swimlane;whiteSpace=wrap;html=1;" vertex="1" parent="1">
          <mxGeometry x="500" width="200" height="470" as="geometry" />
        </mxCell>
        <mxCell id="B8Fi9vvX8Ktx67Z9AlMx-11" value="" style="rounded=1;whiteSpace=wrap;html=1;" vertex="1" parent="B8Fi9vvX8Ktx67Z9AlMx-3">
          <mxGeometry x="40" y="85" width="120" height="60" as="geometry" />
        </mxCell>
        <mxCell id="B8Fi9vvX8Ktx67Z9AlMx-12" value="Menyimpan data siswa" style="text;html=1;align=center;verticalAlign=middle;whiteSpace=wrap;rounded=0;" vertex="1" parent="B8Fi9vvX8Ktx67Z9AlMx-3">
          <mxGeometry x="70" y="100" width="60" height="30" as="geometry" />
        </mxCell>
        <mxCell id="B8Fi9vvX8Ktx67Z9AlMx-17" value="" style="endArrow=none;html=1;rounded=0;entryX=0.5;entryY=1;entryDx=0;entryDy=0;" edge="1" parent="B8Fi9vvX8Ktx67Z9AlMx-3" target="B8Fi9vvX8Ktx67Z9AlMx-11">
          <mxGeometry width="50" height="50" relative="1" as="geometry">
            <mxPoint x="100" y="230" as="sourcePoint" />
            <mxPoint x="70" y="190" as="targetPoint" />
          </mxGeometry>
        </mxCell>
        <mxCell id="B8Fi9vvX8Ktx67Z9AlMx-18" value="" style="endArrow=none;html=1;rounded=0;" edge="1" parent="B8Fi9vvX8Ktx67Z9AlMx-3">
          <mxGeometry width="50" height="50" relative="1" as="geometry">
            <mxPoint x="100" y="230" as="sourcePoint" />
            <mxPoint x="-30" y="230" as="targetPoint" />
          </mxGeometry>
        </mxCell>
        <mxCell id="B8Fi9vvX8Ktx67Z9AlMx-31" value="" style="edgeStyle=orthogonalEdgeStyle;rounded=0;orthogonalLoop=1;jettySize=auto;html=1;" edge="1" parent="B8Fi9vvX8Ktx67Z9AlMx-3" source="B8Fi9vvX8Ktx67Z9AlMx-27" target="B8Fi9vvX8Ktx67Z9AlMx-30">
          <mxGeometry relative="1" as="geometry" />
        </mxCell>
        <mxCell id="B8Fi9vvX8Ktx67Z9AlMx-27" value="" style="rounded=1;whiteSpace=wrap;html=1;" vertex="1" parent="B8Fi9vvX8Ktx67Z9AlMx-3">
          <mxGeometry x="40" y="300" width="120" height="60" as="geometry" />
        </mxCell>
        <mxCell id="B8Fi9vvX8Ktx67Z9AlMx-28" value="Kehadiran Siswa" style="text;html=1;align=center;verticalAlign=middle;whiteSpace=wrap;rounded=0;" vertex="1" parent="B8Fi9vvX8Ktx67Z9AlMx-3">
          <mxGeometry x="70" y="315" width="60" height="30" as="geometry" />
        </mxCell>
        <mxCell id="B8Fi9vvX8Ktx67Z9AlMx-30" value="" style="shape=waypoint;sketch=0;fillStyle=solid;size=6;pointerEvents=1;points=[];fillColor=none;resizable=0;rotatable=0;perimeter=centerPerimeter;snapToPoint=1;fontSize=50;" vertex="1" parent="B8Fi9vvX8Ktx67Z9AlMx-3">
          <mxGeometry x="90" y="410" width="20" height="20" as="geometry" />
        </mxCell>
        <mxCell id="B8Fi9vvX8Ktx67Z9AlMx-9" value="" style="edgeStyle=orthogonalEdgeStyle;rounded=0;orthogonalLoop=1;jettySize=auto;html=1;" edge="1" parent="1" source="B8Fi9vvX8Ktx67Z9AlMx-4" target="B8Fi9vvX8Ktx67Z9AlMx-8">
          <mxGeometry relative="1" as="geometry" />
        </mxCell>
        <mxCell id="B8Fi9vvX8Ktx67Z9AlMx-13" value="" style="edgeStyle=orthogonalEdgeStyle;rounded=0;orthogonalLoop=1;jettySize=auto;html=1;" edge="1" parent="1" source="B8Fi9vvX8Ktx67Z9AlMx-8" target="B8Fi9vvX8Ktx67Z9AlMx-12">
          <mxGeometry relative="1" as="geometry" />
        </mxCell>
        <mxCell id="B8Fi9vvX8Ktx67Z9AlMx-16" style="edgeStyle=orthogonalEdgeStyle;rounded=0;orthogonalLoop=1;jettySize=auto;html=1;entryX=1;entryY=0.5;entryDx=0;entryDy=0;" edge="1" parent="1" source="B8Fi9vvX8Ktx67Z9AlMx-11" target="B8Fi9vvX8Ktx67Z9AlMx-14">
          <mxGeometry relative="1" as="geometry" />
        </mxCell>
        <mxCell id="B8Fi9vvX8Ktx67Z9AlMx-21" value="" style="edgeStyle=orthogonalEdgeStyle;rounded=0;orthogonalLoop=1;jettySize=auto;html=1;" edge="1" parent="1" source="B8Fi9vvX8Ktx67Z9AlMx-14" target="B8Fi9vvX8Ktx67Z9AlMx-20">
          <mxGeometry relative="1" as="geometry" />
        </mxCell>
        <mxCell id="B8Fi9vvX8Ktx67Z9AlMx-32" value="" style="edgeStyle=orthogonalEdgeStyle;rounded=0;orthogonalLoop=1;jettySize=auto;html=1;" edge="1" parent="1" source="B8Fi9vvX8Ktx67Z9AlMx-22" target="B8Fi9vvX8Ktx67Z9AlMx-26">
          <mxGeometry relative="1" as="geometry" />
        </mxCell>
        <mxCell id="B8Fi9vvX8Ktx67Z9AlMx-33" value="" style="edgeStyle=orthogonalEdgeStyle;rounded=0;orthogonalLoop=1;jettySize=auto;html=1;" edge="1" parent="1" source="B8Fi9vvX8Ktx67Z9AlMx-25" target="B8Fi9vvX8Ktx67Z9AlMx-28">
          <mxGeometry relative="1" as="geometry" />
        </mxCell>
      </root>
    </mxGraphModel>
  </diagram>
</mxfile>
